<?xml version="1.0" encoding="UTF-8"?>
<svg id="Layer_1" data-name="Layer 1" xmlns="http://www.w3.org/2000/svg" xmlns:xlink="http://www.w3.org/1999/xlink" viewBox="0 0 1000 983.54">
  <defs>
    <style>
      .cls-1 {
        fill: url(#Degradado_sin_nombre);
      }
    </style>
    <linearGradient id="Degradado_sin_nombre" data-name="Degradado sin nombre" x1="500" y1="2.01" x2="500" y2="985.55" gradientTransform="translate(0 985.55) scale(1 -1)" gradientUnits="userSpaceOnUse">
      <stop offset=".18" stop-color="#ad1519"/>
      <stop offset=".18" stop-color="#ad1618"/>
      <stop offset=".22" stop-color="#c14212"/>
      <stop offset=".26" stop-color="#d3680c"/>
      <stop offset=".3" stop-color="#e18708"/>
      <stop offset=".34" stop-color="#ec9e04"/>
      <stop offset=".39" stop-color="#f3af01"/>
      <stop offset=".44" stop-color="#f8b900"/>
      <stop offset=".5" stop-color="#fabd00"/>
      <stop offset=".56" stop-color="#f8b900"/>
      <stop offset=".61" stop-color="#f3af01"/>
      <stop offset=".66" stop-color="#ec9e04"/>
      <stop offset=".7" stop-color="#e18708"/>
      <stop offset=".74" stop-color="#d3680c"/>
      <stop offset=".78" stop-color="#c14212"/>
      <stop offset=".82" stop-color="#ad1618"/>
      <stop offset=".82" stop-color="#ad1519"/>
    </linearGradient>
  </defs>
  <path class="cls-1" d="M501.02,0C223.36,0,0,225.41,0,504.1c0,223.36,143.44,411.88,342.21,478.48,24.59,5.12,33.81-11.27,33.81-24.59,0-11.27-1.02-52.25-1.02-93.24-139.34,29.71-168.03-60.45-168.03-60.45-22.54-58.4-55.33-73.77-55.33-73.77-45.08-30.74,3.07-30.74,3.07-30.74,50.2,3.07,76.84,52.25,76.84,52.25,45.08,76.84,116.8,55.33,145.49,42.01,4.1-32.79,17.42-55.33,31.76-67.62-110.66-11.27-227.46-55.33-227.46-248.97,0-55.33,19.47-100.41,51.23-135.25-5.12-12.3-22.54-64.55,5.12-133.2,0,0,42.01-13.32,137.29,52.25,39.96-11.27,82.99-16.39,125-16.39s85.04,6.15,125,16.39c95.29-65.57,137.29-52.25,137.29-52.25,27.66,69.67,10.25,120.9,5.12,133.2,32.79,34.84,51.23,79.92,51.23,135.25,0,193.65-116.8,236.68-228.48,248.97,18.44,15.37,33.81,46.11,33.81,93.24,0,67.62-1.02,121.93-1.02,138.32,0,13.32,9.22,29.71,33.81,24.59,199.79-66.6,343.24-255.12,343.24-478.48C1001.02,225.41,776.64,0,501.02,0Z"/>
</svg>