<?xml version="1.0" encoding="UTF-8"?>
<svg id="Layer_1" data-name="Layer 1" xmlns="http://www.w3.org/2000/svg" xmlns:xlink="http://www.w3.org/1999/xlink" viewBox="0 0 2402.78 1000">
  <defs>
    <style>
      .cls-1 {
        isolation: isolate;
      }

      .cls-2 {
        fill: url(#Degradado_sin_nombre);
      }
    </style>
    <linearGradient id="Degradado_sin_nombre" data-name="Degradado sin nombre" x1="508.37" y1="1077.41" x2="508.37" y2="77.41" gradientTransform="translate(0 -77.41)" gradientUnits="userSpaceOnUse">
      <stop offset=".18" stop-color="#ad1519"/>
      <stop offset=".18" stop-color="#ad1618"/>
      <stop offset=".22" stop-color="#c14212"/>
      <stop offset=".26" stop-color="#d3680c"/>
      <stop offset=".3" stop-color="#e18708"/>
      <stop offset=".34" stop-color="#ec9e04"/>
      <stop offset=".39" stop-color="#f3af01"/>
      <stop offset=".44" stop-color="#f8b900"/>
      <stop offset=".5" stop-color="#fabd00"/>
      <stop offset=".56" stop-color="#f8b900"/>
      <stop offset=".61" stop-color="#f3af01"/>
      <stop offset=".66" stop-color="#ec9e04"/>
      <stop offset=".7" stop-color="#e18708"/>
      <stop offset=".74" stop-color="#d3680c"/>
      <stop offset=".78" stop-color="#c14212"/>
      <stop offset=".82" stop-color="#ad1618"/>
      <stop offset=".82" stop-color="#ad1519"/>
    </linearGradient>
  </defs>
  <g class="cls-1">
    <g class="cls-1">
      <g class="cls-1">
        <path d="M1225.72,312.2c-14.98,0-28.02-3.17-39.11-9.51-11.09-6.34-19.74-15.41-25.93-27.22-6.19-11.81-9.29-25.78-9.29-41.92,0-17.43,3.38-32.3,10.15-44.62,6.77-12.32,16.2-21.75,28.3-28.3,12.1-6.55,26.28-9.83,42.56-9.83,13.68,0,25.85,2.2,36.51,6.59,10.66,4.4,19.34,10.62,26.04,18.69,6.7,8.07,10.77,17.65,12.21,28.74h-34.14c-2.31-7.63-7.1-13.75-14.37-18.37-7.28-4.61-16.1-6.91-26.47-6.91-15.12,0-26.61,4.86-34.46,14.58-7.85,9.72-11.77,22.51-11.77,38.35,0,16.85,4.1,29.75,12.32,38.67,8.21,8.93,19.23,13.4,33.06,13.4,12.39,0,22.47-3.24,30.25-9.72,7.78-6.48,11.67-15.12,11.67-25.93v-.43h-44.72v-24.42h80.59v86.21h-26.79l-1.73-24.85h-1.3c-2.45,5.33-6.3,10.01-11.56,14.04-5.26,4.03-11.53,7.17-18.8,9.4-7.28,2.23-15.02,3.35-23.23,3.35Z"/>
      </g>
    </g>
    <g class="cls-1">
      <g class="cls-1">
        <path d="M1349.95,180.84c-4.9,0-8.93-1.3-12.1-3.89-3.17-2.59-4.75-6.19-4.75-10.8s1.58-8.43,4.75-11.02c3.17-2.59,7.2-3.89,12.1-3.89s9.15,1.3,12.32,3.89c3.17,2.59,4.75,6.27,4.75,11.02s-1.59,8.21-4.75,10.8c-3.17,2.59-7.28,3.89-12.32,3.89ZM1334.18,310.26v-115.81h31.76v115.81h-31.76Z"/>
        <path d="M1433.35,310.26c-9.94,0-17.29-2.34-22.04-7.02-4.75-4.68-7.13-12.13-7.13-22.36v-60.93h-20.74v-25.5h20.74v-31.54l31.76-3.03v34.57h23.33v25.5h-23.33v55.1c0,3.46.86,5.87,2.59,7.24,1.73,1.37,4.18,2.05,7.35,2.05h13.4v25.93h-25.93Z"/>
        <path d="M1481.75,310.26v-157.51h33.71v62.66h74.11v-62.66h33.71v157.51h-33.71v-66.11h-74.11v66.11h-33.71Z"/>
        <path d="M1691.11,312.2c-13.4,0-23.62-3.89-30.68-11.67-7.06-7.78-10.59-19.08-10.59-33.92v-72.16h31.76v63.74c0,9.22,1.73,16.24,5.18,21.07,3.46,4.83,9.08,7.24,16.85,7.24s14.29-2.77,18.69-8.32c4.39-5.54,6.59-12.13,6.59-19.77v-63.95h31.76v115.81h-30.46l-1.3-21.17h-1.3c-2.88,7.49-7.6,13.22-14.15,17.18-6.56,3.96-14.01,5.94-22.36,5.94Z"/>
        <path d="M1856.83,312.42c-8.64,0-16.17-2.02-22.58-6.05-6.41-4.03-10.84-9.22-13.29-15.56h-1.73l-1.08,19.45h-30.25v-157.51h31.76v61.36h1.3c2.45-6.48,6.88-11.74,13.29-15.77,6.41-4.03,13.94-6.05,22.58-6.05,14.11,0,25.53,5.29,34.25,15.88,8.71,10.59,13.07,25.32,13.07,44.18s-4.36,33.6-13.07,44.18c-8.72,10.59-20.13,15.88-34.25,15.88ZM1844.73,286.71c8.93,0,15.63-3.1,20.09-9.29,4.46-6.19,6.7-14.55,6.7-25.06s-2.13-18.87-6.37-25.06c-4.25-6.19-10.84-9.29-19.77-9.29s-14.91,2.74-19.23,8.21c-4.32,5.48-6.48,12.32-6.48,20.53v11.45c0,8.36,2.23,15.2,6.7,20.53,4.46,5.33,10.59,7.99,18.37,7.99Z"/>
      </g>
    </g>
    <g class="cls-1">
      <g class="cls-1">
        <path d="M1230.47,566.38c-15.85,0-29.67-3.17-41.48-9.51-11.81-6.34-21-15.52-27.55-27.55-6.56-12.03-9.83-26.61-9.83-43.75s3.27-31.51,9.83-43.54c6.55-12.02,15.77-21.21,27.66-27.55,11.88-6.34,25.67-9.51,41.38-9.51,13.54,0,25.57,2.34,36.08,7.02,10.51,4.68,19.01,11.24,25.5,19.66,6.48,8.43,10.44,18.26,11.88,29.49h-34.14c-1.87-8.07-6.3-14.66-13.29-19.77-6.99-5.11-15.66-7.67-26.04-7.67-13.4,0-24.13,4.32-32.19,12.96-8.07,8.64-12.1,21.61-12.1,38.89s4.03,30.47,12.1,39.11c8.06,8.64,18.8,12.96,32.19,12.96,10.08,0,18.76-2.52,26.04-7.56,7.27-5.04,11.7-11.74,13.29-20.09h34.14c-1.3,11.24-5.22,21.1-11.78,29.6-6.56,8.5-15.12,15.09-25.71,19.77-10.59,4.68-22.58,7.02-35.97,7.02Z"/>
        <path d="M1375.44,566.38c-11.67,0-21.86-2.38-30.57-7.13-8.72-4.75-15.49-11.59-20.31-20.53-4.83-8.93-7.24-19.66-7.24-32.19s2.3-22.43,6.91-31.44c4.61-9,11.24-16.02,19.88-21.07,8.64-5.04,19.08-7.56,31.33-7.56,11.52,0,21.64,2.41,30.36,7.24,8.71,4.83,15.48,11.7,20.31,20.63,4.82,8.93,7.24,19.66,7.24,32.19s-2.31,22.44-6.91,31.44c-4.61,9-11.23,15.99-19.88,20.96-8.64,4.97-19.01,7.45-31.11,7.45ZM1375.23,540.67c7.78,0,14.04-2.81,18.8-8.43,4.75-5.62,7.13-14.19,7.13-25.71s-2.31-20.09-6.91-25.71c-4.61-5.62-10.88-8.43-18.8-8.43s-14.26,2.81-19.01,8.43c-4.75,5.62-7.13,14.19-7.13,25.71s2.38,19.92,7.13,25.6c4.75,5.69,11.02,8.53,18.8,8.53Z"/>
        <path d="M1454.09,564.44v-115.81h30.68l1.08,20.96h1.3c3.02-7.63,7.74-13.4,14.15-17.28,6.41-3.89,13.5-5.83,21.28-5.83s15.45,1.94,22.15,5.83c6.7,3.89,11.56,10.59,14.58,20.09h1.73c2.73-8.64,7.6-15.12,14.58-19.45,6.98-4.32,14.87-6.48,23.66-6.48,7.49,0,14.22,1.59,20.2,4.75,5.97,3.17,10.69,8.29,14.15,15.34,3.46,7.06,5.19,16.35,5.19,27.87v70h-31.76v-63.09c0-9.79-1.62-17.07-4.86-21.82-3.24-4.75-8.46-7.13-15.66-7.13-7.64,0-13.58,2.78-17.83,8.32-4.25,5.55-6.37,11.99-6.37,19.34v64.39h-31.76v-63.09c0-9.79-1.62-17.07-4.86-21.82-3.24-4.75-8.46-7.13-15.66-7.13-7.78,0-13.76,2.78-17.93,8.32-4.18,5.55-6.27,11.99-6.27,19.34v64.39h-31.76Z"/>
        <path d="M1664.1,564.44v-115.81h30.68l1.08,20.96h1.3c3.02-7.63,7.74-13.4,14.15-17.28,6.41-3.89,13.5-5.83,21.28-5.83s15.45,1.94,22.15,5.83c6.7,3.89,11.56,10.59,14.58,20.09h1.73c2.73-8.64,7.6-15.12,14.58-19.45,6.98-4.32,14.87-6.48,23.66-6.48,7.49,0,14.22,1.59,20.2,4.75,5.97,3.17,10.69,8.29,14.15,15.34,3.46,7.06,5.19,16.35,5.19,27.87v70h-31.76v-63.09c0-9.79-1.62-17.07-4.86-21.82-3.24-4.75-8.46-7.13-15.66-7.13-7.64,0-13.58,2.78-17.83,8.32-4.25,5.55-6.37,11.99-6.37,19.34v64.39h-31.76v-63.09c0-9.79-1.62-17.07-4.86-21.82-3.24-4.75-8.46-7.13-15.66-7.13-7.78,0-13.76,2.78-17.93,8.32-4.18,5.55-6.27,11.99-6.27,19.34v64.39h-31.76Z"/>
        <path d="M1913.43,566.38c-13.4,0-23.62-3.89-30.68-11.67-7.06-7.78-10.59-19.08-10.59-33.92v-72.16h31.76v63.74c0,9.22,1.73,16.24,5.18,21.07,3.46,4.83,9.08,7.24,16.85,7.24s14.29-2.77,18.69-8.32c4.39-5.54,6.59-12.13,6.59-19.77v-63.95h31.76v115.81h-30.46l-1.3-21.17h-1.3c-2.88,7.49-7.6,13.22-14.15,17.18-6.56,3.96-14.01,5.94-22.36,5.94Z"/>
        <path d="M2010.22,564.44v-115.81h30.46l1.3,20.96h1.3c3.17-7.63,8.07-13.4,14.69-17.28,6.62-3.89,14.04-5.83,22.25-5.83,7.63,0,14.55,1.59,20.74,4.75,6.19,3.17,11.09,8.29,14.69,15.34,3.6,7.06,5.4,16.35,5.4,27.87v70h-31.76v-63.09c0-9.79-1.73-17.07-5.19-21.82-3.46-4.75-9-7.13-16.64-7.13-8.21,0-14.51,2.78-18.91,8.32-4.4,5.55-6.59,11.99-6.59,19.34v64.39h-31.76Z"/>
        <path d="M2162.11,435.02c-4.9,0-8.93-1.3-12.1-3.89-3.17-2.59-4.75-6.19-4.75-10.8s1.58-8.43,4.75-11.02c3.17-2.59,7.2-3.89,12.1-3.89s9.15,1.3,12.32,3.89c3.17,2.59,4.75,6.27,4.75,11.02s-1.59,8.21-4.75,10.8c-3.17,2.59-7.27,3.89-12.32,3.89ZM2146.33,564.44v-115.81h31.76v115.81h-31.76Z"/>
      </g>
    </g>
    <g class="cls-1">
      <g class="cls-1">
        <path d="M2245.48,564.44c-9.94,0-17.28-2.34-22.04-7.02-4.75-4.68-7.13-12.13-7.13-22.36v-60.93h-20.74v-25.5h20.74v-31.54l31.76-3.03v34.57h23.33v25.5h-23.33v55.1c0,3.46.86,5.87,2.59,7.24,1.73,1.37,4.18,2.05,7.35,2.05h13.4v25.93h-25.93Z"/>
      </g>
    </g>
    <g class="cls-1">
      <g class="cls-1">
        <path d="M2292.38,600.52v-26.14h13.61c4.75,0,8.5-.94,11.24-2.81,2.73-1.87,4.89-4.9,6.48-9.07l2.81-7.13-44.51-106.73h35l19.01,58.77,5.62,18.8h1.3l5.4-18.8,17.72-58.77h33.92l-44.94,121.21c-4.47,12.1-10.26,20.24-17.39,24.42-7.13,4.18-15.67,6.27-25.6,6.27h-19.66Z"/>
      </g>
    </g>
    <g class="cls-1">
      <g class="cls-1">
        <path d="M1215.78,820.57c-21.32,0-37.49-4.75-48.5-14.26s-16.6-21.89-16.74-37.16h34.35c.14,7.78,2.73,14.01,7.78,18.69,5.04,4.68,13.18,7.02,24.41,7.02,8.64,0,15.56-1.55,20.74-4.65,5.18-3.1,7.78-8.17,7.78-15.23,0-4.61-1.08-8.21-3.24-10.8-2.16-2.59-5.91-4.72-11.24-6.37-5.33-1.65-12.75-3.27-22.25-4.86-18.15-2.88-31.84-7.81-41.05-14.8-9.22-6.98-13.83-17.32-13.83-31,0-14.83,5.47-26.54,16.42-35.11,10.94-8.57,26-12.86,45.16-12.86,12.39,0,23.04,1.94,31.98,5.83,8.93,3.89,15.88,9.37,20.85,16.42,4.97,7.06,7.45,15.27,7.45,24.63h-33.92c-.29-7.63-3.06-13.11-8.32-16.42-5.26-3.31-11.63-4.97-19.12-4.97-7.92,0-14.15,1.51-18.69,4.54s-6.81,7.56-6.81,13.61c0,4.18,1.08,7.49,3.24,9.94,2.16,2.45,5.98,4.5,11.45,6.16,5.47,1.66,13.18,3.28,23.12,4.86,6.62,1.01,13.14,2.38,19.55,4.11,6.41,1.73,12.21,4.29,17.39,7.67,5.19,3.39,9.29,8.07,12.32,14.04,3.02,5.98,4.54,13.72,4.54,23.23,0,14.12-5.44,25.6-16.31,34.46-10.88,8.86-27.04,13.29-48.51,13.29Z"/>
      </g>
    </g>
    <g class="cls-1">
      <g class="cls-1">
        <path d="M1301.77,854.71v-151.89h30.25l1.08,19.66h1.73c2.45-6.48,6.88-11.74,13.29-15.77,6.41-4.03,13.94-6.05,22.58-6.05,14.11,0,25.53,5.29,34.25,15.88,8.71,10.59,13.07,25.32,13.07,44.18s-4.36,33.6-13.07,44.18c-8.72,10.59-20.13,15.88-34.25,15.88-8.64,0-16.17-2.02-22.58-6.05-6.41-4.03-10.84-9.22-13.29-15.56h-1.3v55.53h-31.76ZM1358.6,795.08c8.93,0,15.63-3.1,20.09-9.29,4.46-6.19,6.7-14.55,6.7-25.06s-2.13-18.87-6.37-25.06c-4.25-6.19-10.84-9.29-19.77-9.29s-14.91,2.74-19.23,8.21c-4.32,5.48-6.48,12.32-6.48,20.53v11.45c0,8.36,2.23,15.2,6.7,20.53,4.46,5.33,10.59,7.99,18.37,7.99Z"/>
      </g>
    </g>
    <g class="cls-1">
      <g class="cls-1">
        <path d="M1483.68,820.57c-14.12,0-25.5-5.26-34.14-15.77-8.64-10.51-12.96-25.2-12.96-44.08s4.32-33.78,12.96-44.29c8.64-10.51,20.02-15.77,34.14-15.77,8.64,0,16.2,1.98,22.69,5.94,6.48,3.96,10.87,9.18,13.18,15.67h1.73l1.3-19.45h30.03v115.81h-30.03l-1.3-19.66h-1.73c-2.31,6.48-6.7,11.7-13.18,15.66-6.48,3.96-14.04,5.94-22.69,5.94ZM1495.13,794.86c8.64,0,15.09-2.73,19.34-8.21,4.25-5.47,6.37-12.24,6.37-20.31v-11.45c0-8.35-2.24-15.2-6.7-20.53-4.47-5.33-10.52-7.99-18.15-7.99-9.08,0-15.85,3.1-20.31,9.29-4.47,6.19-6.7,14.55-6.7,25.06s2.16,18.66,6.48,24.85c4.32,6.2,10.87,9.29,19.66,9.29Z"/>
        <path d="M1595.6,689.21c-4.9,0-8.93-1.3-12.1-3.89-3.17-2.59-4.75-6.19-4.75-10.8s1.58-8.43,4.75-11.02c3.17-2.59,7.2-3.89,12.1-3.89s9.15,1.3,12.32,3.89c3.17,2.59,4.75,6.27,4.75,11.02s-1.59,8.21-4.75,10.8c-3.17,2.59-7.28,3.89-12.32,3.89ZM1579.82,818.63v-115.81h31.76v115.81h-31.76Z"/>
        <path d="M1638.81,818.63v-115.81h30.46l1.3,20.96h1.3c3.17-7.63,8.07-13.4,14.69-17.28,6.62-3.89,14.04-5.83,22.25-5.83,7.63,0,14.55,1.59,20.74,4.75,6.19,3.17,11.09,8.29,14.69,15.34,3.6,7.06,5.4,16.35,5.4,27.87v70h-31.76v-63.09c0-9.79-1.73-17.07-5.19-21.82-3.46-4.75-9-7.13-16.64-7.13-8.21,0-14.51,2.78-18.91,8.32-4.4,5.55-6.59,11.99-6.59,19.34v64.39h-31.76Z"/>
      </g>
    </g>
  </g>
  <path class="cls-2" d="M509.41,0C227.09,0,0,229.17,0,512.54c0,227.09,145.85,418.77,347.93,486.48,25.01,5.21,34.37-11.46,34.37-25.01,0-11.46-1.04-53.12-1.04-94.79-141.68,30.22-170.84-61.46-170.84-61.46-22.93-59.38-56.25-75.01-56.25-75.01-45.83-31.26,3.13-31.26,3.13-31.26,51.04,3.13,78.14,53.12,78.14,53.12,45.83,78.14,118.76,56.25,147.94,42.7,4.17-33.32,17.72-56.25,32.28-68.76-112.5-11.46-231.26-56.25-231.26-253.14,0-56.25,19.8-102.08,52.08-137.51-5.21-12.51-22.93-65.63,5.21-135.43,0,0,42.7-13.55,139.6,53.12,40.62-11.46,84.39-16.67,127.09-16.67s86.47,6.25,127.09,16.67c96.87-66.67,139.6-53.12,139.6-53.12,28.14,70.84,10.42,122.92,5.21,135.43,33.32,35.41,52.08,81.26,52.08,137.51,0,196.89-118.76,240.64-232.3,253.14,18.76,15.63,34.37,46.87,34.37,94.79,0,68.76-1.04,123.97-1.04,140.64,0,13.55,9.38,30.22,34.37,25.01,203.14-67.71,348.97-259.4,348.97-486.48C1017.78,229.17,789.62,0,509.41,0Z"/>
</svg>