<?xml version="1.0" encoding="UTF-8"?>
<svg id="Capa_1" data-name="Capa 1" xmlns="http://www.w3.org/2000/svg" viewBox="0 0 800 800">
  <defs>
    <style>
      .cls-1 {
        fill: #959da5;
      }
    </style>
  </defs>
  <path class="cls-1" d="M237.5,25c-6.9,0-12.5,5.6-12.5,12.5s5.6,12.5,12.5,12.5,12.5-5.6,12.5-12.5-5.6-12.5-12.5-12.5ZM462.5,50c-20.71,0-37.5,16.79-37.5,37.5s16.79,37.5,37.5,37.5,37.5-16.79,37.5-37.5-16.79-37.5-37.5-37.5ZM350,125c-65.42,0-120.91,41.97-141.41,100.39-60.27,2.1-108.59,51.31-108.59,112.11,0,17.67,4.44,34.2,11.72,49.07-22.68,22.63-36.72,53.88-36.72,88.43,0,60.55,43.07,111.03,100.24,122.51-.02.85-.24,1.64-.24,2.49,0,69.02,55.98,125,125,125,30.33,0,57.74-11.22,79.39-29.2,18.1,18.05,43.06,29.2,70.61,29.2,46.7,0,85.61-32.16,96.58-75.44,71.68-4.72,128.42-64.19,128.42-137.06,0-28.8-8.87-55.51-24.02-77.59,14.8-15.68,24.02-36.66,24.02-59.91,0-35.03-20.71-65-50.44-79,.17-2.82.44-5.62.44-8.5,0-75.95-61.55-137.5-137.5-137.5-15.57,0-30.48,2.7-44.43,7.47-25.58-20.27-57.89-32.47-93.07-32.47ZM175,150c-13.81,0-25,11.19-25,25s11.19,25,25,25,25-11.19,25-25-11.19-25-25-25ZM675,225c-13.81,0-25,11.19-25,25s11.19,25,25,25,25-11.19,25-25-11.19-25-25-25ZM425.15,249.8c3.66-.33,7.72-.14,12.45.63,12.77,1.85,20.18,10.6,29.88,19.82,7.85,8,13.54,3.06,18.02.44,6.93-4,12.33-7.51,32.96-7.03,21.55.45,46.19,8.31,51.42,45.26,5.7,41.43-66.37,147.8-61.62,197.07,3.38,34.65,61.61,9.97,66.36,41.7,6.2,41.23-72.46,25.86-90.04,17.09-28.17-14.17-45.41-46.23-38.33-77.93,5.85-23.7,57.71-120.53,59.86-135.01,1.85-15.4-6.11-16.8-10.89-16.8-6.62-.45-11.39,2.65-18.02,12.35-5.7,8.77-70.4,140.39-76.07,151.32-18.02,34.8-64.67,29.1-59.42-6.15,1.38-10.48,42.78-104.66,44.48-119.58,1.38-8.77-.43-18.52-9.23-23.29-8.77-4.47-19.39,2.64-22.46,7.86-4.48,7.55-62.53,161.99-68.7,173.39-10.92,19.7-22.04,25.88-39.11,26.81-40.02,2.3-70.01-31.61-56.79-72.56,5.7-18.48,44.31-157.35,64.16-192.63,13.25-23.7,49.75-41.69,74.85-30.76,13.25,5.7,31.74,14.9,36.96,17.53,12.33,5.85,25.51-9.56,30.76-14.01,10.27-8.89,17.55-14.54,28.52-15.53ZM762.5,325c-6.9,0-12.5,5.6-12.5,12.5s5.6,12.5,12.5,12.5,12.5-5.6,12.5-12.5-5.6-12.5-12.5-12.5ZM37.5,350c-20.71,0-37.5,16.79-37.5,37.5s16.79,37.5,37.5,37.5,37.5-16.79,37.5-37.5-16.79-37.5-37.5-37.5ZM725,400c-13.81,0-25,11.19-25,25s11.19,25,25,25,25-11.19,25-25-11.19-25-25-25ZM137.5,625c-6.9,0-12.5,5.6-12.5,12.5s5.6,12.5,12.5,12.5,12.5-5.6,12.5-12.5-5.6-12.5-12.5-12.5ZM587.5,675c-20.71,0-37.5,16.79-37.5,37.5s16.79,37.5,37.5,37.5,37.5-16.79,37.5-37.5-16.79-37.5-37.5-37.5ZM375,725c-13.81,0-25,11.19-25,25s11.19,25,25,25,25-11.19,25-25-11.19-25-25-25Z"/>
</svg>