<?xml version="1.0" encoding="UTF-8"?>
<svg id="Layer_1" xmlns="http://www.w3.org/2000/svg" version="1.1" viewBox="0 0 1679 1000">
  <!-- Generator: Adobe Illustrator 29.0.0, SVG Export Plug-In . SVG Version: 2.1.0 Build 186)  -->
  <defs>
    <style>
      .st0 {
        isolation: isolate;
      }
    </style>
  </defs>
  <g class="st0">
    <g class="st0">
      <g class="st0">
        <path d="M109.2,251.7c-20,0-37.4-4.2-52.2-12.7-14.8-8.5-26.3-20.6-34.6-36.3-8.3-15.7-12.4-34.4-12.4-55.9s4.5-43.1,13.5-59.5c9-16.4,21.6-29,37.7-37.7,16.1-8.7,35.1-13.1,56.8-13.1s34.5,2.9,48.7,8.8c14.2,5.9,25.8,14.2,34.7,24.9,8.9,10.8,14.4,23.5,16.3,38.3h-45.5c-3.1-10.2-9.5-18.3-19.2-24.5-9.7-6.1-21.5-9.2-35.3-9.2-20.2,0-35.5,6.5-46,19.5-10.5,13-15.7,30-15.7,51.1s5.5,39.7,16.4,51.6c10.9,11.9,25.6,17.9,44.1,17.9s30-4.3,40.3-13c10.4-8.6,15.6-20.2,15.6-34.6v-.6h-59.6v-32.6h107.5v115h-35.7l-2.3-33.1h-1.7c-3.3,7.1-8.4,13.4-15.4,18.7-7,5.4-15.4,9.6-25.1,12.5-9.7,3-20,4.5-31,4.5Z"/>
      </g>
    </g>
    <g class="st0">
      <g class="st0">
        <path d="M274.9,76.5c-6.5,0-11.9-1.7-16.1-5.2-4.2-3.5-6.3-8.3-6.3-14.4s2.1-11.2,6.3-14.7c4.2-3.5,9.6-5.2,16.1-5.2s12.2,1.7,16.4,5.2c4.2,3.5,6.3,8.4,6.3,14.7s-2.1,11-6.3,14.4c-4.2,3.5-9.7,5.2-16.4,5.2ZM253.9,249.1V94.7h42.4v154.4h-42.4Z"/>
        <path d="M386.1,249.1c-13.3,0-23.1-3.1-29.4-9.4-6.3-6.2-9.5-16.2-9.5-29.8v-81.3h-27.7v-34h27.7v-42.1l42.4-4v46.1h31.1v34h-31.1v73.5c0,4.6,1.2,7.8,3.5,9.7,2.3,1.8,5.6,2.7,9.8,2.7h17.9v34.6h-34.6Z"/>
        <path d="M450.7,249.1V39h45v83.6h98.8V39h45v210.1h-45v-88.2h-98.8v88.2h-45Z"/>
        <path d="M729.9,251.7c-17.9,0-31.5-5.2-40.9-15.6-9.4-10.4-14.1-25.5-14.1-45.2v-96.2h42.4v85c0,12.3,2.3,21.7,6.9,28.1,4.6,6.4,12.1,9.7,22.5,9.7s19.1-3.7,24.9-11.1c5.9-7.4,8.8-16.2,8.8-26.4v-85.3h42.4v154.4h-40.6l-1.7-28.2h-1.7c-3.8,10-10.1,17.6-18.9,22.9-8.7,5.3-18.7,7.9-29.8,7.9Z"/>
        <path d="M950.9,252c-11.5,0-21.6-2.7-30.1-8.1-8.5-5.4-14.5-12.3-17.7-20.7h-2.3l-1.4,25.9h-40.3V39h42.4v81.8h1.7c3.3-8.6,9.2-15.7,17.7-21,8.5-5.4,18.6-8.1,30.1-8.1,18.8,0,34,7.1,45.7,21.2,11.6,14.1,17.4,33.8,17.4,58.9s-5.8,44.8-17.4,58.9c-11.6,14.1-26.8,21.2-45.7,21.2ZM934.8,217.7c11.9,0,20.8-4.1,26.8-12.4,6-8.3,8.9-19.4,8.9-33.4s-2.8-25.2-8.5-33.4c-5.7-8.3-14.5-12.4-26.4-12.4s-19.9,3.7-25.6,10.9c-5.8,7.3-8.6,16.4-8.6,27.4v15.3c0,11.1,3,20.3,8.9,27.4,6,7.1,14.1,10.7,24.5,10.7Z"/>
      </g>
    </g>
    <g class="st0">
      <g class="st0">
        <path d="M115.5,590.7c-21.1,0-39.6-4.2-55.3-12.7-15.8-8.5-28-20.7-36.7-36.7-8.7-16-13.1-35.5-13.1-58.4s4.4-42,13.1-58.1c8.7-16,21-28.3,36.9-36.7,15.8-8.5,34.2-12.7,55.2-12.7s34.1,3.1,48.1,9.4c14,6.2,25.4,15,34,26.2,8.6,11.2,13.9,24.3,15.8,39.3h-45.5c-2.5-10.8-8.4-19.5-17.7-26.4-9.3-6.8-20.9-10.2-34.7-10.2s-32.2,5.8-42.9,17.3c-10.8,11.5-16.1,28.8-16.1,51.9s5.4,40.6,16.1,52.2c10.8,11.5,25.1,17.3,42.9,17.3s25-3.4,34.7-10.1c9.7-6.7,15.6-15.7,17.7-26.8h45.5c-1.7,15-7,28.1-15.7,39.5-8.7,11.3-20.2,20.1-34.3,26.4-14.1,6.2-30.1,9.4-48,9.4Z"/>
        <path d="M308.9,590.7c-15.6,0-29.2-3.2-40.8-9.5-11.6-6.3-20.7-15.5-27.1-27.4-6.4-11.9-9.7-26.2-9.7-42.9s3.1-29.9,9.2-41.9c6.1-12,15-21.4,26.5-28.1,11.5-6.7,25.5-10.1,41.8-10.1s28.9,3.2,40.5,9.7c11.6,6.4,20.6,15.6,27.1,27.5,6.4,11.9,9.7,26.2,9.7,42.9s-3.1,29.9-9.2,41.9c-6.2,12-15,21.3-26.5,28-11.5,6.6-25.4,9.9-41.5,9.9ZM308.6,556.4c10.4,0,18.7-3.7,25.1-11.2,6.3-7.5,9.5-18.9,9.5-34.3s-3.1-26.8-9.2-34.3c-6.2-7.5-14.5-11.2-25.1-11.2s-19,3.7-25.4,11.2c-6.3,7.5-9.5,18.9-9.5,34.3s3.2,26.6,9.5,34.1c6.3,7.6,14.7,11.4,25.1,11.4Z"/>
        <path d="M413.8,588.1v-154.4h40.9l1.4,28h1.7c4-10.2,10.3-17.9,18.9-23.1,8.5-5.2,18-7.8,28.4-7.8s20.6,2.6,29.5,7.8,15.4,14.1,19.5,26.8h2.3c3.6-11.5,10.1-20.2,19.5-25.9,9.3-5.8,19.8-8.6,31.6-8.6s19,2.1,26.9,6.3c8,4.2,14.3,11,18.9,20.5,4.6,9.4,6.9,21.8,6.9,37.2v93.4h-42.4v-84.1c0-13.1-2.2-22.8-6.5-29.1-4.3-6.3-11.3-9.5-20.9-9.5s-18.1,3.7-23.8,11.1c-5.7,7.4-8.5,16-8.5,25.8v85.9h-42.4v-84.1c0-13.1-2.2-22.8-6.5-29.1-4.3-6.3-11.3-9.5-20.9-9.5s-18.3,3.7-23.9,11.1c-5.6,7.4-8.4,16-8.4,25.8v85.9h-42.4Z"/>
        <path d="M693.9,588.1v-154.4h40.9l1.4,28h1.7c4-10.2,10.3-17.9,18.9-23.1,8.5-5.2,18-7.8,28.4-7.8s20.6,2.6,29.5,7.8,15.4,14.1,19.5,26.8h2.3c3.6-11.5,10.1-20.2,19.5-25.9,9.3-5.8,19.8-8.6,31.6-8.6s19,2.1,26.9,6.3c8,4.2,14.3,11,18.9,20.5,4.6,9.4,6.9,21.8,6.9,37.2v93.4h-42.4v-84.1c0-13.1-2.2-22.8-6.5-29.1-4.3-6.3-11.3-9.5-20.9-9.5s-18.1,3.7-23.8,11.1c-5.7,7.4-8.5,16-8.5,25.8v85.9h-42.4v-84.1c0-13.1-2.2-22.8-6.5-29.1-4.3-6.3-11.3-9.5-20.9-9.5s-18.3,3.7-23.9,11.1c-5.6,7.4-8.4,16-8.4,25.8v85.9h-42.4Z"/>
        <path d="M1026.4,590.7c-17.9,0-31.5-5.2-40.9-15.6-9.4-10.4-14.1-25.5-14.1-45.2v-96.2h42.4v85c0,12.3,2.3,21.7,6.9,28.1,4.6,6.4,12.1,9.7,22.5,9.7s19.1-3.7,24.9-11.1c5.9-7.4,8.8-16.2,8.8-26.4v-85.3h42.4v154.4h-40.6l-1.7-28.2h-1.7c-3.8,10-10.1,17.6-18.9,22.9-8.7,5.3-18.7,7.9-29.8,7.9Z"/>
        <path d="M1155.5,588.1v-154.4h40.6l1.7,28h1.7c4.2-10.2,10.8-17.9,19.6-23.1,8.8-5.2,18.7-7.8,29.7-7.8s19.4,2.1,27.7,6.3c8.3,4.2,14.8,11,19.6,20.5,4.8,9.4,7.2,21.8,7.2,37.2v93.4h-42.4v-84.1c0-13.1-2.3-22.8-6.9-29.1-4.6-6.3-12-9.5-22.2-9.5s-19.4,3.7-25.2,11.1c-5.9,7.4-8.8,16-8.8,25.8v85.9h-42.4Z"/>
        <path d="M1358,415.5c-6.5,0-11.9-1.7-16.1-5.2-4.2-3.5-6.3-8.3-6.3-14.4s2.1-11.2,6.3-14.7c4.2-3.5,9.6-5.2,16.1-5.2s12.2,1.7,16.4,5.2c4.2,3.5,6.3,8.4,6.3,14.7s-2.1,11-6.3,14.4c-4.2,3.5-9.7,5.2-16.4,5.2ZM1337,588.1v-154.4h42.4v154.4h-42.4Z"/>
      </g>
    </g>
    <g class="st0">
      <g class="st0">
        <path d="M1469.2,588.1c-13.3,0-23.1-3.1-29.4-9.4-6.3-6.2-9.5-16.2-9.5-29.8v-81.3h-27.7v-34h27.7v-42.1l42.4-4v46.1h31.1v34h-31.1v73.5c0,4.6,1.2,7.8,3.5,9.7,2.3,1.8,5.6,2.7,9.8,2.7h17.9v34.6h-34.6Z"/>
      </g>
    </g>
    <g class="st0">
      <g class="st0">
        <path d="M1531.8,636.2v-34.9h18.2c6.3,0,11.3-1.3,15-3.7,3.6-2.5,6.5-6.5,8.6-12.1l3.7-9.5-59.4-142.3h46.7l25.4,78.4,7.5,25.1h1.7l7.2-25.1,23.6-78.4h45.2l-59.9,161.7c-6,16.1-13.7,27-23.2,32.6-9.5,5.6-20.9,8.4-34.1,8.4h-26.2Z"/>
      </g>
    </g>
    <g class="st0">
      <g class="st0">
        <path d="M96,929.7c-28.4,0-50-6.3-64.7-19-14.7-12.7-22.1-29.2-22.3-49.6h45.8c.2,10.4,3.6,18.7,10.4,24.9,6.7,6.2,17.6,9.4,32.6,9.4s20.7-2.1,27.7-6.2c6.9-4.1,10.4-10.9,10.4-20.3s-1.4-11-4.3-14.4c-2.9-3.5-7.9-6.3-15-8.5-7.1-2.2-17-4.4-29.7-6.5-24.2-3.8-42.5-10.4-54.7-19.7-12.3-9.3-18.4-23.1-18.4-41.3s7.3-35.4,21.9-46.8c14.6-11.4,34.7-17.1,60.2-17.1s30.7,2.6,42.6,7.8c11.9,5.2,21.2,12.5,27.8,21.9,6.6,9.4,9.9,20.4,9.9,32.8h-45.2c-.4-10.2-4.1-17.5-11.1-21.9-7-4.4-15.5-6.6-25.5-6.6s-18.9,2-24.9,6.1c-6.1,4-9.1,10.1-9.1,18.2s1.4,10,4.3,13.3c2.9,3.3,8,6,15.3,8.2,7.3,2.2,17.6,4.4,30.8,6.5,8.8,1.3,17.5,3.2,26.1,5.5,8.5,2.3,16.3,5.7,23.2,10.2,6.9,4.5,12.4,10.8,16.4,18.7,4,8,6.1,18.3,6.1,31,0,18.8-7.3,34.1-21.8,46-14.5,11.8-36.1,17.7-64.7,17.7Z"/>
      </g>
    </g>
    <g class="st0">
      <g class="st0">
        <path d="M210.6,975.2v-202.6h40.3l1.4,26.2h2.3c3.3-8.6,9.2-15.7,17.7-21,8.5-5.4,18.6-8.1,30.1-8.1,18.8,0,34,7.1,45.7,21.2,11.6,14.1,17.4,33.8,17.4,58.9s-5.8,44.8-17.4,58.9c-11.6,14.1-26.8,21.2-45.7,21.2s-21.6-2.7-30.1-8.1c-8.5-5.4-14.5-12.3-17.7-20.7h-1.7v74.1h-42.4ZM286.4,895.7c11.9,0,20.8-4.1,26.8-12.4,6-8.3,8.9-19.4,8.9-33.4s-2.8-25.2-8.5-33.4c-5.7-8.3-14.5-12.4-26.4-12.4s-19.9,3.7-25.6,10.9c-5.8,7.3-8.6,16.4-8.6,27.4v15.3c0,11.1,3,20.3,8.9,27.4,6,7.1,14.1,10.7,24.5,10.7Z"/>
      </g>
    </g>
    <g class="st0">
      <g class="st0">
        <path d="M453.2,929.7c-18.8,0-34-7-45.5-21-11.5-14-17.3-33.6-17.3-58.8s5.8-45,17.3-59.1c11.5-14,26.7-21,45.5-21s21.6,2.6,30.3,7.9c8.6,5.3,14.5,12.2,17.6,20.9h2.3l1.7-25.9h40.1v154.4h-40.1l-1.7-26.2h-2.3c-3.1,8.6-8.9,15.6-17.6,20.9-8.6,5.3-18.7,7.9-30.3,7.9ZM468.5,895.4c11.5,0,20.1-3.6,25.8-11,5.7-7.3,8.5-16.3,8.5-27.1v-15.3c0-11.1-3-20.3-8.9-27.4-6-7.1-14-10.7-24.2-10.7s-21.1,4.1-27.1,12.4c-6,8.3-8.9,19.4-8.9,33.4s2.9,24.9,8.6,33.1c5.8,8.3,14.5,12.4,26.2,12.4Z"/>
        <path d="M602.5,754.5c-6.5,0-11.9-1.7-16.1-5.2-4.2-3.5-6.3-8.3-6.3-14.4s2.1-11.2,6.3-14.7c4.2-3.5,9.6-5.2,16.1-5.2s12.2,1.7,16.4,5.2c4.2,3.5,6.3,8.4,6.3,14.7s-2.1,11-6.3,14.4c-4.2,3.5-9.7,5.2-16.4,5.2ZM581.5,927.1v-154.4h42.4v154.4h-42.4Z"/>
        <path d="M660.1,927.1v-154.4h40.6l1.7,28h1.7c4.2-10.2,10.8-17.9,19.6-23.1,8.8-5.2,18.7-7.8,29.7-7.8s19.4,2.1,27.7,6.3c8.3,4.2,14.8,11,19.6,20.5,4.8,9.4,7.2,21.8,7.2,37.2v93.4h-42.4v-84.1c0-13.1-2.3-22.8-6.9-29.1-4.6-6.3-12-9.5-22.2-9.5s-19.4,3.7-25.2,11.1c-5.9,7.4-8.8,16-8.8,25.8v85.9h-42.4Z"/>
      </g>
    </g>
  </g>
</svg>